<svg xmlns="http://www.w3.org/2000/svg" viewBox="0 0 150 150">
  <style>
    path { fill: #000; }
    @media (prefers-color-scheme: dark) { path { fill: #fff; } }
  </style>
  <path fill-rule="evenodd" d="M34.82,18.54C16.52,18.54,1.49,33.56,1.49,51.87s15.02,33.33,33.33,33.33h80.69c6.95,0,12.28,5.33,12.28,12.28s-5.33,12.28-12.28,12.28H33.07c-5.77-.01-10.52,4.74-10.52,10.51s4.76,10.52,10.52,10.52h82.44c18.31,0,33.33-15.02,33.33-33.33s-15.02-33.33-33.33-33.33H34.82c-6.95,0-12.28-5.33-12.28-12.28s5.33-12.28,12.28-12.28h82.45c5.77.01,10.52-4.74,10.52-10.51s-4.76-10.52-10.52-10.52H34.82Z"/>
</svg>
